HIERARCHY
ROOT HipCenter
{
    OFFSET 0.0 0.0 -0.0
    CHANNELS 6 Xposition Yposition Zposition Zrotation Xrotation Yrotation
    JOINT Spine
    {
        OFFSET 0.0 11.217731475830078 0.0
        CHANNELS 3 Zrotation Xrotation Yrotation
        JOINT ShoulderCenter
        {
            OFFSET 0.0 30.4871826171875 0.0
            CHANNELS 3 Zrotation Xrotation Yrotation
            JOINT LeftShoulder
            {
                OFFSET 19.478282928466797 0.0 0.0
                CHANNELS 3 Zrotation Xrotation Yrotation
                JOINT LeftElbow
                {
                    OFFSET 28.739818572998047 0.0 0.0
                    CHANNELS 3 Zrotation Xrotation Yrotation
                    JOINT LeftWrist
                    {
                        OFFSET 27.810169219970703 0.0 0.0
                        CHANNELS 3 Zrotation Xrotation Yrotation
                        JOINT LeftHand
                        {
                            OFFSET 3.695187568664551 0.0 0.0
                            CHANNELS 3 Zrotation Xrotation Yrotation
                            End Site
                            {
                                OFFSET 1.4780752658843994 0.0 0.0
                            }
                        }
                    }
                }
            }
            JOINT RightShoulder
            {
                OFFSET -19.478282928466797 0.0 0.0
                CHANNELS 3 Zrotation Xrotation Yrotation
                JOINT RightElbow
                {
                    OFFSET -28.739818572998047 0.0 0.0
                    CHANNELS 3 Zrotation Xrotation Yrotation
                    JOINT RightWrist
                    {
                        OFFSET -27.810169219970703 0.0 0.0
                        CHANNELS 3 Zrotation Xrotation Yrotation
                        JOINT RightHand
                        {
                            OFFSET -3.695187568664551 0.0 0.0
                            CHANNELS 3 Zrotation Xrotation Yrotation
                            End Site
                            {
                                OFFSET -1.4780752658843994 0.0 0.0
                            }
                        }
                    }
                }
            }
            End Site
            {
                OFFSET 0.0 12.194870948791504 0.0
            }
        }
    }
    JOINT LeftHip
    {
        OFFSET 11.684045791625977 0.0 0.0
        CHANNELS 3 Zrotation Xrotation Yrotation
        JOINT LeftKnee
        {
            OFFSET 0.0 -38.83317565917969 0.0
            CHANNELS 3 Zrotation Xrotation Yrotation
            JOINT LeftAnkle
            {
                OFFSET 0.0 -41.47892761230469 0.0
                CHANNELS 3 Zrotation Xrotation Yrotation
                JOINT LeftFoot
                {
                    OFFSET 0.0 -9.032527923583984 0.0
                    CHANNELS 3 Zrotation Xrotation Yrotation
                    End Site
                    {
                        OFFSET 0.0 0.0 3.613011360168457
                    }
                }
            }
        }
    }
    JOINT RightHip
    {
        OFFSET -11.684045791625977 0.0 0.0
        CHANNELS 3 Zrotation Xrotation Yrotation
        JOINT RightKnee
        {
            OFFSET 0.0 -38.83317565917969 0.0
            CHANNELS 3 Zrotation Xrotation Yrotation
            JOINT RightAnkle
            {
                OFFSET 0.0 -41.47892761230469 0.0
                CHANNELS 3 Zrotation Xrotation Yrotation
                JOINT RightFoot
                {
                    OFFSET 0.0 -9.032527923583984 0.0
                    CHANNELS 3 Zrotation Xrotation Yrotation
                    End Site
                    {
                        OFFSET 0.0 0.0 3.613011360168457
                    }
                }
            }
        }
    }
}
MOTION
Frames: 6
Frame Time: 0.03333333333333333
72.5999984741211 -7.400000095367432 -22.799999237060547 -8.068812241169005e-08 -6.679891743489238 -163.79773334472264 -1.5556793124911352 2.7359146500480174 0.05447510383535337 7.92794899834793e-08 -2.014146325030818e-08 -7.426116337523798 124.01155237151397 6.934056426383314 -73.49129884896142 -1.143010781322351e-06 -3.938712577583494e-06 48.52938529041756 -179.99999437080302 -52.94681073536443 -128.3456557311126 -3.1805546814635176e-15 -2.427648463927587e-31 8.746525374024672e-15 -110.48110690679088 9.347852204314302 74.0250970300476 -1.9562575853210416e-06 2.5841330244629542e-06 -38.11683709111986 2.7762240196018023e-06 -3.8246087045941297 -76.8568536198808 -3.1805546814635168e-15 0.0 0.0 8.471344405806672 17.341319749013586 -52.28211921844707 -9.190206039463813 7.906223406185993 -6.903494664137317 56.55661651993317 -11.57307503915708 123.03843319023082 -3.180554681463516e-15 3.180554681463516e-15 -7.951386703658789e-16 2.0455131130378974 -9.360064420742704 12.844612610669222 8.464216679971706 20.339502223081286 21.777166414165354 -94.08696339540123 -31.517889716745156 -155.64525311878276 -6.3611093629270335e-15 0.0 0.0
72.5999984741211 -7.400000095367432 -22.700000762939453 -1.186079858569668e-08 -6.620772162628423 -164.1264595782591 -1.6327270975442283 3.1911350057002594 0.07163597981126835 -3.5474921384958606e-10 1.9272296355902764e-08 -7.513669871458044 119.65347826917032 6.53531514115964 -73.04523616903533 1.9476242284793014e-07 3.215641313992395e-06 52.41404903418259 179.99998750819188 -67.05426097125238 -128.31864437219312 0.0 0.0 -3.1805546814635168e-15 -109.94226756949185 8.77740106337317 73.99963435619982 9.736803284633434e-07 -1.0779712002268058e-06 -38.78212536228071 2.0707430590503963e-06 -4.751337483744776 -77.11906685968559 -7.95138670365879e-15 0.0 0.0 8.361067024585166 17.386561444084002 -52.13659213355894 -9.182270814231064 8.080291848589063 -6.932582899220099 56.560485293082884 -11.47278599217371 121.43291599367315 -1.5902773407317588e-15 -3.1805546814635168e-15 -7.156248033292914e-15 2.1154534306856974 -9.291351841317852 13.678771797983323 8.423513537446206 20.1885059804362 21.76477707093195 -94.5434400192019 -31.65794929450871 -156.06898923940008 0.0 0.0 3.1805546814635168e-15
72.5 -7.400000095367432 -22.600000381469727 2.1889646667149102e-08 -6.620772398867731 -164.72232642826557 -1.1026314027857633 3.8215605400091692 0.05429243733233344 3.766938100266299e-08 6.801763613435289e-07 -7.168876535916899 118.36721035200402 7.099344160728046 -73.26495871989816 -1.0635068551583588e-06 3.954066275014352e-06 58.01481449794209 -179.99999509710665 -72.42828839870711 -129.32215310144574 0.0 0.0 0.0 -109.62488172090939 8.69193418880897 74.04240383833623 -1.489962789821702e-07 -1.3208410078295294e-07 -40.14675724223534 -1.8277515762501195e-06 -5.589086317963312 -77.01058515163058 0.0 0.0 0.0 8.138211062803705 17.343351941318517 -51.3775968477944 -9.308413089557165 8.298972623709528 -7.105158084428421 56.37493163640661 -11.981189003197985 119.40163053718489 0.0 0.0 7.95138670365879e-15 1.9933556208190877 -9.514384134356282 12.692145745819811 8.314763897646992 20.348757022418756 22.039108005936498 -93.09452414570056 -32.38783470528112 -154.58856710491048 3.1805546814635168e-15 2.648343778830095e-31 9.54166404439055e-15
72.5 -7.299999713897705 -22.30000114440918 0.5161958927303171 -7.188246999259459 -164.60200352438738 -0.5053309978338117 4.028425538594453 0.07325142620096911 -4.149938520024044e-08 -2.6337940414027504e-07 -7.7287416683651164 117.43221003796675 7.585808095634168 -73.64459765832468 1.859130113789674e-08 5.7786589478968085e-06 62.97427540534137 179.99998968155137 -73.52186306977711 -126.41390529324003 0.0 0.0 3.1805546814635176e-15 -110.88752284333181 9.484785836408047 74.0846710569756 -1.7379297564199808e-06 -4.023615054837569e-06 -41.593850261806594 9.882591943190849e-07 -2.3585023809748247 -77.24412447457539 1.5902773407317578e-15 6.361109362927033e-15 6.361109362927033e-15 8.617701307492174 16.61598211303011 -51.47757259885555 -9.330507020814693 8.039685748165983 -6.910941153760091 57.03024187751001 -11.855206811543798 122.50347146089868 1.590277340731758e-15 -3.310429723537619e-32 -2.3854160110976368e-15 2.264465755046377 -10.49018070048582 12.152753581257144 8.305577767426522 20.468806587969453 22.42045712780884 -93.5894541540032 -31.86573445696406 -155.50683112376547 3.1805546814635164e-15 -1.7655625192200634e-31 -6.361109362927033e-15
72.39999389648438 -7.299999713897705 -22.100000381469727 0.5161563688033027 -7.695743843125403 -165.6567406081592 -0.38085937992879676 4.05192876708634 -0.003504011518695884 7.737719498007598e-08 1.02504217260272e-06 -7.440125330149535 116.80994527738589 7.781595658523712 -73.82046323356538 7.858717757189285e-07 1.0749013639151984e-06 63.96880422716828 -179.9999970444331 -78.46362631996624 -126.26529566872331 -3.1805546814635168e-15 8.827812596100317e-32 -3.1805546814635168e-15 -111.77911590675849 9.09668311297915 74.02347138266413 2.0515937153633764e-06 1.4844162744078719e-06 -42.52806289058552 1.386574228822763e-06 -4.283798820468089 -78.51344675833364 4.770832022195277e-15 3.1805546814635176e-15 3.1805546814635176e-15 8.278918993004256 16.66395478173523 -52.01825805261657 -9.028123260998877 7.281686838567397 -6.31946625961964 55.40997239407257 -11.829523674275968 117.73731044203912 -1.5902773407317584e-15 -5.517382872562698e-32 3.975693351829396e-15 2.14742635587317 -11.036771753670244 11.940081288774609 7.821184488966265 20.32307189700747 22.444303937954263 -93.83361245248831 -33.84973843328172 -154.7171582385986 -3.1805546814635164e-15 8.827812596100317e-32 -3.1805546814635164e-15
72.39999389648438 -7.199999809265137 -21.899999618530273 0.5161563649377967 -7.695742693449739 -165.59248238949863 -0.0038766223402127253 4.756053898573716 0.004646462239571598 7.090054113637588e-09 -4.5714330199776213e-07 -7.641279274919442 116.41693630809769 7.33458742257142 -73.00014760156564 1.956526061477108e-06 1.226576965656404e-06 60.66679520442041 179.99999282366565 -77.48757562887101 -123.00348746851705 3.1805546814635168e-15 -6.3611093629270335e-15 1.7655625192200634e-31 -112.05967989685163 9.797555362095347 73.69177388069775 4.4893383868046776e-06 -1.973484949354007e-06 -43.149091402266976 -8.690168034124057e-07 -6.1273577651166775 -78.67954528233443 1.5902773407317584e-15 4.4139062980501586e-32 3.1805546814635168e-15 8.088430041746104 16.505558156517985 -51.178040935372906 -8.866892901672156 7.831777690673624 -6.906933013477264 56.205819853315816 -13.374825376090204 119.20787201561201 1.5902773407317584e-15 2.758691436281349e-32 1.987846675914698e-15 1.96311555573431 -11.155285034519151 10.798015589622842 7.738507272332154 20.14904873545734 22.768310811599306 -92.82334585493545 -34.61861022326787 -153.99691302462236 -6.3611093629270335e-15 6.3611093629270335e-15 3.531125038440127e-31
